<?xml version="1.0" encoding="UTF-8" standalone="no"?>
<!-- Created with Inkscape (http://www.inkscape.org/) -->

<svg
   width="210mm"
   height="297mm"
   viewBox="0 0 210 297"
   version="1.1"
   id="svg1"
   xml:space="preserve"
   inkscape:version="1.3.2 (091e20e, 2023-11-25, custom)"
   sodipodi:docname="storm_drawing.svg"
   inkscape:export-filename="storm_drawing.jpg"
   inkscape:export-xdpi="96"
   inkscape:export-ydpi="96"
   xmlns:inkscape="http://www.inkscape.org/namespaces/inkscape"
   xmlns:sodipodi="http://sodipodi.sourceforge.net/DTD/sodipodi-0.dtd"
   xmlns="http://www.w3.org/2000/svg"
   xmlns:svg="http://www.w3.org/2000/svg"><sodipodi:namedview
     id="namedview1"
     pagecolor="#ffffff"
     bordercolor="#000000"
     borderopacity="0.25"
     inkscape:showpageshadow="2"
     inkscape:pageopacity="0.0"
     inkscape:pagecheckerboard="0"
     inkscape:deskcolor="#d1d1d1"
     inkscape:document-units="mm"
     inkscape:zoom="0.6412669"
     inkscape:cx="241.70903"
     inkscape:cy="440.5342"
     inkscape:window-width="1366"
     inkscape:window-height="705"
     inkscape:window-x="-8"
     inkscape:window-y="-8"
     inkscape:window-maximized="1"
     inkscape:current-layer="layer1"
     inkscape:export-bgcolor="#ccf6f6ff" /><defs
     id="defs1"><rect
       x="68.365637"
       y="388.14039"
       width="630.72814"
       height="188.55684"
       id="rect2" /><rect
       x="74.981667"
       y="400.26978"
       width="119.08853"
       height="132.32059"
       id="rect1" /><filter
       inkscape:collect="always"
       style="color-interpolation-filters:sRGB"
       id="filter3"
       x="-0.0023413272"
       y="-0.01044232"
       width="1.0046827"
       height="1.0208846"><feGaussianBlur
         inkscape:collect="always"
         stdDeviation="0.41169119"
         id="feGaussianBlur3" /></filter><rect
       x="68.365639"
       y="388.14038"
       width="630.72815"
       height="188.55684"
       id="rect2-1" /><filter
       inkscape:collect="always"
       style="color-interpolation-filters:sRGB"
       id="filter3-3"
       x="-0.0021460297"
       y="-0.0095712926"
       width="1.0042921"
       height="1.0191426"><feGaussianBlur
         inkscape:collect="always"
         stdDeviation="0.41169119"
         id="feGaussianBlur3-7" /></filter><filter
       inkscape:collect="always"
       style="color-interpolation-filters:sRGB"
       id="filter1"
       x="-0.01582309"
       y="-0.02018313"
       width="1.0316462"
       height="1.0403663"><feGaussianBlur
         inkscape:collect="always"
         stdDeviation="0.77687641"
         id="feGaussianBlur1" /></filter></defs><g
     inkscape:label="Layer 1"
     inkscape:groupmode="layer"
     id="layer1"><g
       id="g1"
       transform="matrix(1.085036,0,0,1.106994,7.1911947,25.69323)"
       style="mix-blend-mode:color-burn"><path
         style="fill:#241c1c;stroke-width:0.233661;paint-order:stroke markers fill"
         id="path9"
         d="m 31.684337,83.64961 c 0.202503,-1.281594 -0.31603,-1.808387 0.162917,-2.948244 0.987169,-2.463882 2.207029,-4.744966 3.489318,-6.967122 2.338399,-3.86755 5.070777,-7.279034 7.944579,-10.481096 2.652112,-2.850684 5.543549,-5.336529 8.58009,-7.463724 0.648179,-0.454067 1.311093,-0.872664 1.966641,-1.308996 2.989799,-1.935266 6.100297,-3.533577 9.298254,-4.806427 2.236195,-0.890047 3.116667,-1.13552 5.366996,-1.865182 3.27646,-0.998403 6.593733,-1.799723 9.948965,-2.205821 2.464265,-0.298259 3.139999,-0.273352 5.657208,-0.375565 17.496605,-0.330003 39.906755,4.804683 53.474925,28.406798 3.34642,6.104667 3.40518,12.600129 5.49989,13.878298 0.28098,-0.20573 -6.59145,-43.558854 -59.719803,-42.975077 -0.991523,0.03006 -1.983774,0.03305 -2.974573,0.09019 -4.281727,0.246933 -8.52413,1.079156 -12.66631,2.492951 -5.030564,1.719829 -10.07253,3.574315 -14.715052,6.662836 -3.717718,2.513335 -7.371803,5.258294 -10.564424,8.794059 -1.118097,1.26278 -1.76683,1.958419 -2.826578,3.303508 -1.799209,2.283653 -3.43507,4.771972 -5.075134,7.240347 -0.586704,0.964298 -1.233341,1.991399 -1.774312,3.006587 -0.667074,1.251834 -1.212418,2.608607 -1.800742,3.920972 -0.464632,1.177226 -1.375995,2.853382 -0.365277,3.212529 z"
         sodipodi:nodetypes="ccccscscsccccscccscscsc" /><path
         style="fill:#241c1c;stroke-width:0.289219;paint-order:stroke markers fill"
         id="path19"
         d="m 46.592675,62.53141 c -0.256318,-0.379656 -0.34498,-0.860656 -0.464871,-1.318726 -0.261043,-1.003207 -0.410536,-2.031318 -0.517023,-3.073846 -0.06509,-1.155546 -0.05175,-2.355067 0.214411,-3.477935 0.04785,-0.201846 0.1186,-0.394492 0.177897,-0.59174 0.357294,-1.008118 0.890188,-1.911744 1.550537,-2.656932 0.160119,-0.180691 0.332195,-0.344862 0.498293,-0.51729 0.840177,-0.765828 1.716474,-1.513984 2.681581,-2.029674 0.195879,-0.104653 0.39884,-0.188262 0.59826,-0.282393 0.763948,-0.27142 1.58613,-0.473758 2.382977,-0.289982 0.836114,0.160199 0.925177,0.450323 1.46751,0.934414 0.371424,0.444201 0.636647,0.946379 0.896572,1.489939 0.423611,0.931905 0.58087,1.982817 0.744557,3.016788 0.194852,1.338748 0.204377,2.698426 0.136528,4.051138 -0.0616,1.127946 -0.262126,2.230352 -0.441818,3.335183 -0.05632,0.346236 -0.140022,0.689332 -0.155507,1.041843 -0.0183,0.417098 0.03651,0.8342 0.05477,1.251306 -0.03411,0.40288 -0.06819,0.805758 -0.102302,1.208638 l 0.06916,0.04689 v 0 l 0.532933,-0.918226 c 0.209753,-0.265459 0.459154,-0.491426 0.629257,-0.79637 0.156367,-0.280326 0.23969,-0.613257 0.334851,-0.93201 0.317361,-1.063044 0.448051,-2.193935 0.5383,-3.313484 0.07309,-1.365684 0.124043,-2.731533 -0.09891,-4.083549 -0.154307,-1.08289 -0.377382,-2.156691 -0.807754,-3.130665 -0.280653,-0.561245 -0.570033,-1.113783 -0.952936,-1.58288 -0.778606,-0.953875 -1.804349,-1.524626 -2.764908,-2.15626 -0.464091,-0.228043 -0.719448,-0.3933 -1.215028,-0.484932 -0.798614,-0.147668 -1.616156,0.114692 -2.374103,0.386206 -0.207496,0.09444 -0.419625,0.17485 -0.622487,0.283293 -0.971894,0.519539 -1.834609,1.30968 -2.679571,2.078736 -0.910175,0.947069 -1.652472,1.85744 -2.093096,3.245753 -0.139653,0.53724 -0.205609,0.721766 -0.27827,1.284769 -0.123016,0.953161 -0.09735,1.930708 -0.0725,2.890544 0.0158,0.236095 0.02269,0.473331 0.04737,0.708279 0.08887,0.8453 0.296293,1.674697 0.559935,2.460628 0.173996,0.509588 0.400738,0.975819 0.634804,1.44659 z"
         sodipodi:nodetypes="cccscscscsscccsccccccsscccscscsccsccccc" /><path
         style="fill:#241c1c;stroke-width:0.271685;paint-order:stroke markers fill"
         id="path21"
         d="m 34.514024,74.749977 c 0.0072,-0.621512 0.02433,-1.242725 0.03984,-1.863934 0,0 -0.06362,-0.0431 -0.06362,-0.0431 v 0 c -0.01555,0.620981 -0.03172,1.241956 -0.04127,1.863161 z" /><path
         style="fill:#241c1c;stroke-width:0.160447;paint-order:stroke markers fill"
         id="path22"
         d="m 30.391336,78.750263 c -0.0091,-0.02318 -0.01407,-0.04722 -0.02752,-0.06955 -0.01706,-0.02832 -0.04753,-0.05298 -0.06361,-0.08154 -0.04092,-0.07275 -0.04156,-0.148689 -0.09958,-0.218441 -0.04028,-0.04843 -0.101412,-0.08871 -0.147949,-0.134815 -0.05577,-0.05528 -0.105879,-0.112778 -0.158819,-0.169167 -0.389801,-0.372544 -0.838192,-0.713812 -1.335146,-1.029926 -0.521844,-0.306764 -1.063721,-0.598842 -1.607292,-0.889935 -0.19067,-0.127018 -0.536117,-0.179715 -0.663547,-0.347104 -0.03631,-0.04772 -0.02612,-0.104663 -0.03918,-0.156998 0,0 0.07627,-0.03139 0.07627,-0.03139 v 0 c 0.13568,0.0024 0.273235,-0.0073 0.407042,0.0071 0.320359,0.03457 0.550822,0.17674 0.78454,0.305564 0.520002,0.298474 1.010395,0.618196 1.502273,0.93485 0.476181,0.326529 0.874549,0.694675 1.238096,1.074418 0.154513,0.161399 0.316512,0.358231 0.351602,0.551308 0.011,0.06021 -0.02012,0.121743 0.005,0.181805 z" /><path
         style="fill:#241c1c;stroke-width:0.240958;paint-order:stroke markers fill"
         id="path22-0"
         d="m 33.529961,80.402668 c 0.01325,-0.03625 0.0203,-0.07385 0.03969,-0.108749 0.02461,-0.04428 0.06857,-0.08283 0.09173,-0.127487 0.05903,-0.113745 0.05996,-0.232468 0.143651,-0.341518 0.05811,-0.0757 0.146291,-0.138682 0.213422,-0.210778 0.08046,-0.08642 0.152735,-0.176319 0.229104,-0.264483 0.562302,-0.582455 1.209125,-1.11601 1.926003,-1.61024 0.752777,-0.47961 1.534458,-0.936259 2.318582,-1.391369 0.275048,-0.198584 0.773368,-0.280973 0.957193,-0.542678 0.05239,-0.07461 0.03767,-0.16364 0.05652,-0.245461 0,0 -0.110006,-0.04906 -0.110006,-0.04906 v 0 c -0.195727,0.0038 -0.394152,-0.01144 -0.587175,0.0112 -0.46213,0.05405 -0.794583,0.276327 -1.13173,0.477737 -0.750122,0.466647 -1.457536,0.966516 -2.167091,1.461589 -0.686907,0.510512 -1.261572,1.086094 -1.786001,1.6798 -0.222891,0.252338 -0.456583,0.560076 -0.507199,0.861942 -0.0158,0.09413 0.02904,0.190341 -0.007,0.284242 z" /><path
         style="fill:#241c1c;stroke-width:0.309923;paint-order:stroke markers fill"
         id="path25"
         d="m 34.781436,80.681587 c 0.635484,-0.70484 1.360952,-1.036712 2.094903,-1.281724 0.806996,-0.178348 1.618507,-0.255107 2.429941,-0.337315 -0.02508,-0.110845 -0.05017,-0.221703 -0.07525,-0.332557 0,0 -0.152588,-0.186641 -0.152588,-0.186641 v 0 c -0.141609,-0.09224 -0.283218,-0.184495 -0.424828,-0.276741 -0.672971,0.186905 -1.344224,0.459166 -1.977249,0.897293 -0.691718,0.421279 -1.377501,0.863991 -2.058983,1.331401 z" /><path
         style="fill:#241c1c;stroke-width:0.236552;paint-order:stroke markers fill"
         id="path25-0"
         d="m 29.881998,79.681204 c -0.517757,-0.503981 -1.108828,-0.741277 -1.70681,-0.916468 -0.657493,-0.127525 -1.318669,-0.182409 -1.979778,-0.24119 0.02044,-0.07925 0.04086,-0.158524 0.0613,-0.237787 0,0 0.12432,-0.133454 0.12432,-0.133454 v 0 c 0.115375,-0.06596 0.23075,-0.131919 0.346126,-0.197878 0.548299,0.133643 1.095198,0.328317 1.610951,0.641591 0.563574,0.301226 1.122311,0.617776 1.677542,0.951988 z" /><path
         style="fill:#241c1c;stroke-width:0.319406;paint-order:stroke markers fill"
         id="path26"
         d="m 34.980511,81.656497 c 0.108245,0.01368 0.215856,0.03448 0.324705,0.04102 0.782527,0.04713 0.159314,-0.06023 1.102655,0.06371 0.78826,0.103567 1.575426,0.243724 2.362888,0.35686 0.628761,0.08336 0.840288,0.116246 1.457355,0.180219 0.199073,0.02052 0.404532,0.10855 0.597848,0.05494 0.0878,-0.02434 0.08064,-0.169494 0.120959,-0.254246 0,0 -0.11786,-0.09036 -0.11786,-0.09036 v 0 c -0.290133,-0.107309 -0.571015,-0.24708 -0.870403,-0.321967 -0.187064,-0.04678 -0.383956,-0.02617 -0.575898,-0.0398 -0.73346,-0.05214 -0.598519,-0.04317 -1.35603,-0.104774 -0.697616,-0.06145 -1.385961,-0.118342 -2.085534,-0.138468 -0.361777,-0.01041 -0.724268,-0.07162 -1.085016,-0.04142 -0.06284,0.0053 -0.117302,0.04816 -0.175957,0.07221 z" /><path
         style="fill:#241c1c;stroke-width:0.167795;paint-order:stroke markers fill"
         id="path26-5"
         d="m 29.677285,80.934725 c -0.06069,0.0068 -0.121038,0.01696 -0.182075,0.0202 -0.438787,0.0232 -0.08933,-0.02965 -0.618294,0.03134 -0.442001,0.05096 -0.883391,0.119954 -1.324947,0.175636 -0.352566,0.04103 -0.471177,0.05722 -0.817186,0.0887 -0.111633,0.01019 -0.226834,0.05343 -0.335231,0.02705 -0.04923,-0.01197 -0.04522,-0.08342 -0.06783,-0.125131 0,0 0.06608,-0.04448 0.06608,-0.04448 v 0 c 0.162687,-0.05281 0.320186,-0.121605 0.488064,-0.158463 0.104889,-0.02302 0.215296,-0.01288 0.322923,-0.01959 0.411275,-0.02567 0.335609,-0.02124 0.760369,-0.05156 0.391178,-0.03024 0.777154,-0.05824 1.169426,-0.06815 0.202862,-0.0051 0.406122,-0.03525 0.608406,-0.02038 0.03523,0.0025 0.06577,0.02369 0.09866,0.03554 z" /><path
         style="opacity:1;fill:#241c1c;stroke-width:3.165;stroke-dasharray:none;paint-order:stroke markers fill"
         id="path27"
         d="m 33.452521,83.7728 c 54.822591,-22.700987 148.496189,-7.173963 142.177359,8.359294 -0.95192,2.292509 -5.71883,2.855926 -10.38776,2.874556 -16.23207,-0.0676 -19.13212,-6.978518 -45.47556,-10.118959 -23.778089,-2.64349 -34.824424,7.36082 -19.994989,18.461869 10.711189,6.86789 15.023649,12.81926 15.494849,17.8857 1.41702,15.23589 -30.544398,20.48413 -38.573288,3.35564 -2.123351,-4.70716 -0.132333,-9.01989 4.332891,-11.97503 3.293348,-2.17957 9.635717,-3.48907 11.832095,-4.39042 -4.468073,-1.58344 -15.580193,4.40042 -17.051378,6.57475 -13.275353,19.62022 36.5941,33.9134 41.54184,8.29719 -0.0675,-10.72618 -7.49091,-14.00065 -15.48277,-20.69691 -16.573955,-13.380659 1.97864,-18.066943 19.65583,-16.207769 30.72455,4.215496 24.5139,9.102071 45.25811,9.929703 10.86294,-0.0807 12.58281,-5.764996 7.90699,-10.385364 -6.45963,-9.450072 -77.469351,-25.345355 -137.60534,-4.355774 -0.898229,0.492573 -4.794007,1.377047 -5.319975,1.835351 z"
         sodipodi:nodetypes="sccccscscscccccccs"
         transform="matrix(0.77991351,0,0,1,5.8836109,0)" /><path
         style="fill:#241c1c;stroke-width:0.259427;paint-order:stroke markers fill"
         id="path20"
         d="m 37.887848,65.903926 c -0.258541,-3.867442 -2.12475,-9.513949 2.496291,-11.811521 1.90397,-0.486084 2.279336,3.668574 3.077431,2.029119 -0.09685,-1.305697 -1.450784,-1.998693 -2.465101,-2.687699 -4.817023,-3.312637 -6.923392,10.387957 -3.108621,12.470101 z"
         sodipodi:nodetypes="csssc" /></g><g
       id="g2"
       transform="matrix(1.085036,0,0,1.106994,8.6186999,26.639189)"
       style="mix-blend-mode:color-burn;filter:url(#filter1)"><path
         style="fill:#241c1c;stroke-width:0.233661;paint-order:stroke markers fill"
         id="path9-4"
         d="m 31.684337,83.64961 c 0.202503,-1.281594 -0.31603,-1.808387 0.162917,-2.948244 0.987169,-2.463882 2.207029,-4.744966 3.489318,-6.967122 2.338399,-3.86755 5.070777,-7.279034 7.944579,-10.481096 2.652112,-2.850684 5.543549,-5.336529 8.58009,-7.463724 0.648179,-0.454067 1.311093,-0.872664 1.966641,-1.308996 2.989799,-1.935266 6.100297,-3.533577 9.298254,-4.806427 2.236195,-0.890047 3.116667,-1.13552 5.366996,-1.865182 3.27646,-0.998403 6.593733,-1.799723 9.948965,-2.205821 2.464265,-0.298259 3.139999,-0.273352 5.657208,-0.375565 17.496605,-0.330003 39.906755,4.804683 53.474925,28.406798 3.34642,6.104667 3.40518,12.600129 5.49989,13.878298 0.28098,-0.20573 -6.59145,-43.558854 -59.719803,-42.975077 -0.991523,0.03006 -1.983774,0.03305 -2.974573,0.09019 -4.281727,0.246933 -8.52413,1.079156 -12.66631,2.492951 -5.030564,1.719829 -10.07253,3.574315 -14.715052,6.662836 -3.717718,2.513335 -7.371803,5.258294 -10.564424,8.794059 -1.118097,1.26278 -1.76683,1.958419 -2.826578,3.303508 -1.799209,2.283653 -3.43507,4.771972 -5.075134,7.240347 -0.586704,0.964298 -1.233341,1.991399 -1.774312,3.006587 -0.667074,1.251834 -1.212418,2.608607 -1.800742,3.920972 -0.464632,1.177226 -1.375995,2.853382 -0.365277,3.212529 z"
         sodipodi:nodetypes="ccccscscsccccscccscscsc" /><path
         style="fill:#241c1c;stroke-width:0.289219;paint-order:stroke markers fill"
         id="path19-1"
         d="m 46.592675,62.53141 c -0.256318,-0.379656 -0.34498,-0.860656 -0.464871,-1.318726 -0.261043,-1.003207 -0.410536,-2.031318 -0.517023,-3.073846 -0.06509,-1.155546 -0.05175,-2.355067 0.214411,-3.477935 0.04785,-0.201846 0.1186,-0.394492 0.177897,-0.59174 0.357294,-1.008118 0.890188,-1.911744 1.550537,-2.656932 0.160119,-0.180691 0.332195,-0.344862 0.498293,-0.51729 0.840177,-0.765828 1.716474,-1.513984 2.681581,-2.029674 0.195879,-0.104653 0.39884,-0.188262 0.59826,-0.282393 0.763948,-0.27142 1.58613,-0.473758 2.382977,-0.289982 0.836114,0.160199 0.925177,0.450323 1.46751,0.934414 0.371424,0.444201 0.636647,0.946379 0.896572,1.489939 0.423611,0.931905 0.58087,1.982817 0.744557,3.016788 0.194852,1.338748 0.204377,2.698426 0.136528,4.051138 -0.0616,1.127946 -0.262126,2.230352 -0.441818,3.335183 -0.05632,0.346236 -0.140022,0.689332 -0.155507,1.041843 -0.0183,0.417098 0.03651,0.8342 0.05477,1.251306 -0.03411,0.40288 -0.06819,0.805758 -0.102302,1.208638 l 0.06916,0.04689 v 0 l 0.532933,-0.918226 c 0.209753,-0.265459 0.459154,-0.491426 0.629257,-0.79637 0.156367,-0.280326 0.23969,-0.613257 0.334851,-0.93201 0.317361,-1.063044 0.448051,-2.193935 0.5383,-3.313484 0.07309,-1.365684 0.124043,-2.731533 -0.09891,-4.083549 -0.154307,-1.08289 -0.377382,-2.156691 -0.807754,-3.130665 -0.280653,-0.561245 -0.570033,-1.113783 -0.952936,-1.58288 -0.778606,-0.953875 -1.804349,-1.524626 -2.764908,-2.15626 -0.464091,-0.228043 -0.719448,-0.3933 -1.215028,-0.484932 -0.798614,-0.147668 -1.616156,0.114692 -2.374103,0.386206 -0.207496,0.09444 -0.419625,0.17485 -0.622487,0.283293 -0.971894,0.519539 -1.834609,1.30968 -2.679571,2.078736 -0.910175,0.947069 -1.652472,1.85744 -2.093096,3.245753 -0.139653,0.53724 -0.205609,0.721766 -0.27827,1.284769 -0.123016,0.953161 -0.09735,1.930708 -0.0725,2.890544 0.0158,0.236095 0.02269,0.473331 0.04737,0.708279 0.08887,0.8453 0.296293,1.674697 0.559935,2.460628 0.173996,0.509588 0.400738,0.975819 0.634804,1.44659 z"
         sodipodi:nodetypes="cccscscscsscccsccccccsscccscscsccsccccc" /><path
         style="fill:#241c1c;stroke-width:0.271685;paint-order:stroke markers fill"
         id="path21-4"
         d="m 34.514024,74.749977 c 0.0072,-0.621512 0.02433,-1.242725 0.03984,-1.863934 0,0 -0.06362,-0.0431 -0.06362,-0.0431 v 0 c -0.01555,0.620981 -0.03172,1.241956 -0.04127,1.863161 z" /><path
         style="fill:#241c1c;stroke-width:0.160447;paint-order:stroke markers fill"
         id="path22-1"
         d="m 30.391336,78.750263 c -0.0091,-0.02318 -0.01407,-0.04722 -0.02752,-0.06955 -0.01706,-0.02832 -0.04753,-0.05298 -0.06361,-0.08154 -0.04092,-0.07275 -0.04156,-0.148689 -0.09958,-0.218441 -0.04028,-0.04843 -0.101412,-0.08871 -0.147949,-0.134815 -0.05577,-0.05528 -0.105879,-0.112778 -0.158819,-0.169167 -0.389801,-0.372544 -0.838192,-0.713812 -1.335146,-1.029926 -0.521844,-0.306764 -1.063721,-0.598842 -1.607292,-0.889935 -0.19067,-0.127018 -0.536117,-0.179715 -0.663547,-0.347104 -0.03631,-0.04772 -0.02612,-0.104663 -0.03918,-0.156998 0,0 0.07627,-0.03139 0.07627,-0.03139 v 0 c 0.13568,0.0024 0.273235,-0.0073 0.407042,0.0071 0.320359,0.03457 0.550822,0.17674 0.78454,0.305564 0.520002,0.298474 1.010395,0.618196 1.502273,0.93485 0.476181,0.326529 0.874549,0.694675 1.238096,1.074418 0.154513,0.161399 0.316512,0.358231 0.351602,0.551308 0.011,0.06021 -0.02012,0.121743 0.005,0.181805 z" /><path
         style="fill:#241c1c;stroke-width:0.240958;paint-order:stroke markers fill"
         id="path22-0-4"
         d="m 33.529961,80.402668 c 0.01325,-0.03625 0.0203,-0.07385 0.03969,-0.108749 0.02461,-0.04428 0.06857,-0.08283 0.09173,-0.127487 0.05903,-0.113745 0.05996,-0.232468 0.143651,-0.341518 0.05811,-0.0757 0.146291,-0.138682 0.213422,-0.210778 0.08046,-0.08642 0.152735,-0.176319 0.229104,-0.264483 0.562302,-0.582455 1.209125,-1.11601 1.926003,-1.61024 0.752777,-0.47961 1.534458,-0.936259 2.318582,-1.391369 0.275048,-0.198584 0.773368,-0.280973 0.957193,-0.542678 0.05239,-0.07461 0.03767,-0.16364 0.05652,-0.245461 0,0 -0.110006,-0.04906 -0.110006,-0.04906 v 0 c -0.195727,0.0038 -0.394152,-0.01144 -0.587175,0.0112 -0.46213,0.05405 -0.794583,0.276327 -1.13173,0.477737 -0.750122,0.466647 -1.457536,0.966516 -2.167091,1.461589 -0.686907,0.510512 -1.261572,1.086094 -1.786001,1.6798 -0.222891,0.252338 -0.456583,0.560076 -0.507199,0.861942 -0.0158,0.09413 0.02904,0.190341 -0.007,0.284242 z" /><path
         style="fill:#241c1c;stroke-width:0.309923;paint-order:stroke markers fill"
         id="path25-00"
         d="m 34.781436,80.681587 c 0.635484,-0.70484 1.360952,-1.036712 2.094903,-1.281724 0.806996,-0.178348 1.618507,-0.255107 2.429941,-0.337315 -0.02508,-0.110845 -0.05017,-0.221703 -0.07525,-0.332557 0,0 -0.152588,-0.186641 -0.152588,-0.186641 v 0 c -0.141609,-0.09224 -0.283218,-0.184495 -0.424828,-0.276741 -0.672971,0.186905 -1.344224,0.459166 -1.977249,0.897293 -0.691718,0.421279 -1.377501,0.863991 -2.058983,1.331401 z" /><path
         style="fill:#241c1c;stroke-width:0.236552;paint-order:stroke markers fill"
         id="path25-0-3"
         d="m 29.881998,79.681204 c -0.517757,-0.503981 -1.108828,-0.741277 -1.70681,-0.916468 -0.657493,-0.127525 -1.318669,-0.182409 -1.979778,-0.24119 0.02044,-0.07925 0.04086,-0.158524 0.0613,-0.237787 0,0 0.12432,-0.133454 0.12432,-0.133454 v 0 c 0.115375,-0.06596 0.23075,-0.131919 0.346126,-0.197878 0.548299,0.133643 1.095198,0.328317 1.610951,0.641591 0.563574,0.301226 1.122311,0.617776 1.677542,0.951988 z" /><path
         style="fill:#241c1c;stroke-width:0.319406;paint-order:stroke markers fill"
         id="path26-3"
         d="m 34.980511,81.656497 c 0.108245,0.01368 0.215856,0.03448 0.324705,0.04102 0.782527,0.04713 0.159314,-0.06023 1.102655,0.06371 0.78826,0.103567 1.575426,0.243724 2.362888,0.35686 0.628761,0.08336 0.840288,0.116246 1.457355,0.180219 0.199073,0.02052 0.404532,0.10855 0.597848,0.05494 0.0878,-0.02434 0.08064,-0.169494 0.120959,-0.254246 0,0 -0.11786,-0.09036 -0.11786,-0.09036 v 0 c -0.290133,-0.107309 -0.571015,-0.24708 -0.870403,-0.321967 -0.187064,-0.04678 -0.383956,-0.02617 -0.575898,-0.0398 -0.73346,-0.05214 -0.598519,-0.04317 -1.35603,-0.104774 -0.697616,-0.06145 -1.385961,-0.118342 -2.085534,-0.138468 -0.361777,-0.01041 -0.724268,-0.07162 -1.085016,-0.04142 -0.06284,0.0053 -0.117302,0.04816 -0.175957,0.07221 z" /><path
         style="fill:#241c1c;stroke-width:0.167795;paint-order:stroke markers fill"
         id="path26-5-2"
         d="m 29.677285,80.934725 c -0.06069,0.0068 -0.121038,0.01696 -0.182075,0.0202 -0.438787,0.0232 -0.08933,-0.02965 -0.618294,0.03134 -0.442001,0.05096 -0.883391,0.119954 -1.324947,0.175636 -0.352566,0.04103 -0.471177,0.05722 -0.817186,0.0887 -0.111633,0.01019 -0.226834,0.05343 -0.335231,0.02705 -0.04923,-0.01197 -0.04522,-0.08342 -0.06783,-0.125131 0,0 0.06608,-0.04448 0.06608,-0.04448 v 0 c 0.162687,-0.05281 0.320186,-0.121605 0.488064,-0.158463 0.104889,-0.02302 0.215296,-0.01288 0.322923,-0.01959 0.411275,-0.02567 0.335609,-0.02124 0.760369,-0.05156 0.391178,-0.03024 0.777154,-0.05824 1.169426,-0.06815 0.202862,-0.0051 0.406122,-0.03525 0.608406,-0.02038 0.03523,0.0025 0.06577,0.02369 0.09866,0.03554 z" /><path
         style="opacity:1;fill:#241c1c;stroke-width:3.165;stroke-dasharray:none;paint-order:stroke markers fill"
         id="path27-1"
         d="m 33.452521,83.7728 c 54.822591,-22.700987 148.496189,-7.173963 142.177359,8.359294 -0.95192,2.292509 -5.71883,2.855926 -10.38776,2.874556 -16.23207,-0.0676 -19.13212,-6.978518 -45.47556,-10.118959 -23.778089,-2.64349 -34.824424,7.36082 -19.994989,18.461869 10.711189,6.86789 15.023649,12.81926 15.494849,17.8857 1.41702,15.23589 -30.544398,20.48413 -38.573288,3.35564 -2.123351,-4.70716 -0.132333,-9.01989 4.332891,-11.97503 3.293348,-2.17957 9.635717,-3.48907 11.832095,-4.39042 -4.468073,-1.58344 -15.580193,4.40042 -17.051378,6.57475 -13.275353,19.62022 36.5941,33.9134 41.54184,8.29719 -0.0675,-10.72618 -7.49091,-14.00065 -15.48277,-20.69691 -16.573955,-13.380659 1.97864,-18.066943 19.65583,-16.207769 30.72455,4.215496 24.5139,9.102071 45.25811,9.929703 10.86294,-0.0807 12.58281,-5.764996 7.90699,-10.385364 -6.45963,-9.450072 -77.469351,-25.345355 -137.60534,-4.355774 -0.898229,0.492573 -4.794007,1.377047 -5.319975,1.835351 z"
         sodipodi:nodetypes="sccccscscscccccccs"
         transform="matrix(0.77991351,0,0,1,5.8836109,0)" /><path
         style="fill:#241c1c;stroke-width:0.259427;paint-order:stroke markers fill"
         id="path20-9"
         d="m 37.887848,65.903926 c -0.258541,-3.867442 -2.12475,-9.513949 2.496291,-11.811521 1.90397,-0.486084 2.279336,3.668574 3.077431,2.029119 -0.09685,-1.305697 -1.450784,-1.998693 -2.465101,-2.687699 -4.817023,-3.312637 -6.923392,10.387957 -3.108621,12.470101 z"
         sodipodi:nodetypes="csssc" /></g><text
       xml:space="preserve"
       transform="matrix(0.34291952,0,0,0.36523516,6.7314235,-11.014572)"
       id="text2"
       style="font-style:normal;font-variant:normal;font-weight:normal;font-stretch:normal;font-size:143.543px;font-family:'Gill Sans MT';-inkscape-font-specification:'Gill Sans MT';white-space:pre;shape-inside:url(#rect2);display:inline;opacity:1;mix-blend-mode:normal;fill:#00005e;fill-opacity:1;stroke-width:0.423974;stroke-dasharray:none;filter:url(#filter3)"><tspan
         x="68.365234"
         y="513.7788"
         id="tspan2"><tspan
           style="font-family:Candara;-inkscape-font-specification:Candara"
           id="tspan1">ST   RM</tspan></tspan></text><text
       xml:space="preserve"
       transform="matrix(0.34291952,0,0,0.36523516,0.37249892,17.674643)"
       id="text2-6"
       style="font-style:normal;font-variant:normal;font-weight:normal;font-stretch:normal;font-size:156.606px;font-family:'Gill Sans MT';-inkscape-font-specification:'Gill Sans MT';white-space:pre;shape-inside:url(#rect2-1);display:inline;opacity:0.846715;mix-blend-mode:normal;fill:#000080;stroke-width:0.423974;stroke-dasharray:none;filter:url(#filter3-3)" /><rect
       style="opacity:0.846715;fill:#000080;stroke-width:0.146563;stroke-dasharray:none;paint-order:stroke markers fill"
       id="rect4"
       width="2.3919904"
       height="1.9809008"
       x="28.593618"
       y="106.78389"
       transform="matrix(0.46468238,-0.88547744,0.55001933,0.83515193,0,0)" /><rect
       style="opacity:0.846715;fill:#000080;stroke-width:0.146563;stroke-dasharray:none;paint-order:stroke markers fill"
       id="rect4-4"
       width="2.3919904"
       height="1.9809008"
       x="92.959389"
       y="192.31236"
       transform="matrix(0.46468238,-0.88547744,0.55001933,0.83515193,0,0)" /><rect
       style="opacity:0.846715;fill:#000080;stroke-width:0.146563;stroke-dasharray:none;paint-order:stroke markers fill"
       id="rect4-4-9"
       width="2.3919904"
       height="1.9809008"
       x="-30.06881"
       y="81.153526"
       transform="matrix(0.46468238,-0.88547744,0.55001933,0.83515193,0,0)" /><rect
       style="opacity:0.846715;fill:#000080;stroke-width:0.146563;stroke-dasharray:none;paint-order:stroke markers fill"
       id="rect4-4-9-0"
       width="2.3919904"
       height="1.9809008"
       x="76.330864"
       y="135.71825"
       transform="matrix(0.46468238,-0.88547744,0.55001933,0.83515193,0,0)" /><rect
       style="opacity:0.846715;fill:#000080;stroke-width:0.146563;stroke-dasharray:none;paint-order:stroke markers fill"
       id="rect4-4-9-5"
       width="2.3919904"
       height="1.9809008"
       x="1.9452709"
       y="66.39283"
       transform="matrix(0.46468238,-0.88547744,0.55001933,0.83515193,0,0)" /><ellipse
       style="opacity:0.846715;fill:#ff6600;stroke-width:0.161461;stroke-dasharray:none;paint-order:stroke markers fill"
       id="path4"
       cx="126.16853"
       cy="61.91293"
       rx="1.0314867"
       ry="1.3688377" /><ellipse
       style="opacity:0.846715;fill:#ff6600;stroke-width:0.161461;stroke-dasharray:none;paint-order:stroke markers fill"
       id="path4-6"
       cx="174.55029"
       cy="111.70994"
       rx="1.0314867"
       ry="1.3688377" /><ellipse
       style="opacity:0.846715;fill:#ff6600;stroke-width:0.161461;stroke-dasharray:none;paint-order:stroke markers fill"
       id="path4-0"
       cx="59.55386"
       cy="47.973141"
       rx="1.0314867"
       ry="1.3688377" /><path
       sodipodi:type="star"
       style="opacity:0.846715;fill:#008000;stroke-width:0.147;stroke-dasharray:none;paint-order:stroke markers fill"
       id="path6"
       inkscape:flatsided="true"
       sodipodi:sides="5"
       sodipodi:cx="78.908737"
       sodipodi:cy="19.907696"
       sodipodi:r1="1.3877234"
       sodipodi:r2="1.1226919"
       sodipodi:arg1="0.7328151"
       sodipodi:arg2="1.3611336"
       inkscape:rounded="0"
       inkscape:randomized="0"
       d="m 79.940224,20.836034 -1.595642,0.339536 -0.815999,-1.412623 1.091327,-1.212585 1.490476,0.663204 z"
       inkscape:transform-center-x="0.089253411"
       inkscape:transform-center-y="-0.053962832"
       transform="matrix(1,0,0,1.2064119,63.892926,26.72413)" /><path
       sodipodi:type="star"
       style="opacity:0.846715;fill:#008000;stroke-width:0.147;stroke-dasharray:none;paint-order:stroke markers fill"
       id="path6-5"
       inkscape:flatsided="true"
       sodipodi:sides="5"
       sodipodi:cx="78.908737"
       sodipodi:cy="19.907696"
       sodipodi:r1="1.3877234"
       sodipodi:r2="1.1226919"
       sodipodi:arg1="0.7328151"
       sodipodi:arg2="1.3611336"
       inkscape:rounded="0"
       inkscape:randomized="0"
       d="m 79.940224,20.836034 -1.595642,0.339536 -0.815999,-1.412623 1.091327,-1.212585 1.490476,0.663204 z"
       inkscape:transform-center-x="0.089253411"
       inkscape:transform-center-y="-0.053962128"
       transform="matrix(1,0,0,1.2064119,6.0797154,13.531884)" /><path
       sodipodi:type="star"
       style="opacity:0.846715;fill:#008000;stroke-width:0.147;stroke-dasharray:none;paint-order:stroke markers fill"
       id="path6-9"
       inkscape:flatsided="true"
       sodipodi:sides="5"
       sodipodi:cx="78.908737"
       sodipodi:cy="19.907696"
       sodipodi:r1="1.3877234"
       sodipodi:r2="1.1226919"
       sodipodi:arg1="0.7328151"
       sodipodi:arg2="1.3611336"
       inkscape:rounded="0"
       inkscape:randomized="0"
       d="m 79.940224,20.836034 -1.595642,0.339536 -0.815999,-1.412623 1.091327,-1.212585 1.490476,0.663204 z"
       inkscape:transform-center-x="0.089253411"
       inkscape:transform-center-y="-0.053963162"
       transform="matrix(1,0,0,1.2064119,-34.784838,51.348292)" /><rect
       style="opacity:0.846715;fill:#000080;stroke-width:0.146563;stroke-dasharray:none;paint-order:stroke markers fill"
       id="rect4-4-9-52"
       width="2.3919904"
       height="1.9809008"
       x="88.343658"
       y="218.31871"
       transform="matrix(0.46468238,-0.88547744,0.55001933,0.83515193,0,0)" /><rect
       style="opacity:0.846715;fill:#000080;stroke-width:0.146563;stroke-dasharray:none;paint-order:stroke markers fill"
       id="rect4-4-9-2"
       width="2.3919904"
       height="1.9809008"
       x="121.65862"
       y="208.38123"
       transform="matrix(0.46468238,-0.88547744,0.55001933,0.83515193,0,0)" /><path
       sodipodi:type="star"
       style="opacity:0.846715;fill:#008000;stroke-width:0.147;stroke-dasharray:none;paint-order:stroke markers fill"
       id="path6-3"
       inkscape:flatsided="true"
       sodipodi:sides="5"
       sodipodi:cx="78.908737"
       sodipodi:cy="19.907696"
       sodipodi:r1="1.3877234"
       sodipodi:r2="1.1226919"
       sodipodi:arg1="0.7328151"
       sodipodi:arg2="1.3611336"
       inkscape:rounded="0"
       inkscape:randomized="0"
       d="m 79.940224,20.836034 -1.595642,0.339536 -0.815999,-1.412623 1.091327,-1.212585 1.490476,0.663204 z"
       inkscape:transform-center-x="0.089253411"
       inkscape:transform-center-y="-0.053963346"
       transform="matrix(1,0,0,1.2064119,14.648013,45.296218)" /><text
       xml:space="preserve"
       style="font-style:normal;font-variant:normal;font-weight:normal;font-stretch:normal;font-size:6.88554px;font-family:Candara;-inkscape-font-specification:Candara;opacity:0.846715;fill:#000054;fill-opacity:1;stroke-width:0.143458;stroke-dasharray:none;paint-order:stroke markers fill"
       x="34.041523"
       y="182.10588"
       id="text6"
       transform="scale(0.9758598,1.0247374)"><tspan
         sodipodi:role="line"
         id="tspan6"
         style="font-style:normal;font-variant:normal;font-weight:bold;font-stretch:normal;font-size:6.88554px;font-family:Candara;-inkscape-font-specification:'Candara Bold';fill:#000054;fill-opacity:1;stroke-width:0.143458"
         x="34.041523"
         y="182.10588">Simple  Tracker  for  Object  Recognition  Memory</tspan></text></g></svg>
